<?xml version="1.0" standalone="no"?>
<!DOCTYPE svg PUBLIC "-//W3C//DTD SVG 20010904//EN"
 "http://www.w3.org/TR/2001/REC-SVG-20010904/DTD/svg10.dtd">
<svg version="1.0" xmlns="http://www.w3.org/2000/svg"
 width="413.000000pt" height="413.000000pt" viewBox="0 0 413.000000 413.000000"
 preserveAspectRatio="xMidYMid meet">

<g transform="translate(0.000000,413.000000) scale(0.100000,-0.100000)"
fill="#000000" stroke="none">
<path d="M1900 3941 c-71 -8 -109 -21 -246 -87 -28 -13 -57 -24 -64 -24 -21 0
-80 -41 -80 -56 0 -7 -24 -31 -53 -53 -30 -21 -72 -58 -95 -82 -53 -53 -131
-167 -137 -198 -2 -14 -9 -29 -15 -35 -5 -5 -10 -26 -10 -45 0 -20 -12 -90
-25 -156 -27 -129 -32 -287 -14 -380 5 -27 10 -67 11 -87 1 -30 4 -35 15 -27
9 8 13 8 13 1 0 -6 -5 -14 -10 -17 -5 -3 -10 -14 -9 -23 0 -14 2 -14 6 -2 3 8
11 22 18 30 21 25 25 83 6 104 -15 18 -15 18 8 6 21 -11 23 -10 18 4 -3 8 -2
18 3 21 6 4 10 14 10 23 0 9 14 44 30 77 21 43 30 75 30 113 0 41 3 52 16 52
11 0 14 5 10 16 -9 24 25 62 52 57 13 -1 22 0 19 4 -2 5 7 18 20 30 l23 22 1
-22 c0 -14 2 -16 6 -7 2 8 7 22 10 30 4 8 6 18 5 22 -3 12 26 -3 31 -16 3 -8
14 -12 24 -11 31 3 83 26 83 37 0 5 10 6 22 2 37 -11 82 -12 95 -2 7 6 22 8
33 5 11 -3 23 -1 26 4 3 5 13 5 24 -1 13 -7 21 -7 26 1 10 16 34 -18 27 -37
-9 -23 65 -15 82 9 7 10 22 19 34 20 11 1 21 4 21 8 0 4 9 9 20 12 11 3 20 0
20 -6 0 -6 6 -2 14 8 13 18 13 18 24 0 8 -15 13 -17 24 -7 11 9 19 9 34 -2 14
-11 22 -11 32 -3 7 5 12 6 11 1 -1 -5 -1 -16 0 -24 1 -13 2 -13 11 0 9 13 12
13 23 -1 9 -11 27 -15 65 -14 29 1 55 -2 58 -7 9 -15 36 -9 30 7 -9 25 52 8
112 -31 28 -19 52 -31 52 -27 1 5 7 -3 15 -17 8 -16 24 -26 42 -28 54 -4 62
-6 57 -13 -2 -4 3 -12 11 -19 10 -8 15 -9 15 -2 0 7 7 7 23 -1 40 -22 77 -64
77 -88 0 -13 11 -46 25 -72 14 -26 34 -88 43 -139 10 -50 23 -93 30 -96 7 -2
12 1 12 6 0 5 11 7 25 4 16 -3 24 -10 23 -20 -2 -8 4 -17 12 -19 13 -4 13 -3
0 6 -10 7 -11 11 -2 11 6 0 12 9 12 20 0 11 -7 20 -15 20 -8 0 -15 5 -15 11 0
5 5 7 10 4 6 -4 17 -1 25 5 17 14 21 45 5 35 -14 -8 -13 -3 6 35 22 44 14 247
-16 380 -60 273 -72 313 -107 351 -18 20 -33 40 -33 45 0 14 -70 86 -125 129
-27 22 -52 43 -55 46 -9 11 -49 29 -107 48 -87 29 -184 71 -215 94 -20 15 -45
21 -90 23 -35 1 -103 4 -153 7 -49 3 -124 2 -165 -2z m-690 -1187 c0 -28 -15
-25 -23 6 -3 13 0 20 9 20 8 0 14 -10 14 -26z"/>
<path d="M1787 2863 c-18 -3 -25 -9 -20 -16 4 -7 -1 -6 -10 2 -15 12 -32 12
-100 3 -45 -7 -95 -11 -112 -9 -29 2 -115 -46 -115 -65 0 -4 -7 -8 -16 -8 -8
0 -12 -5 -9 -10 4 -6 0 -21 -9 -34 -14 -22 -14 -24 7 -30 31 -8 46 -6 22 4
-17 6 -14 9 17 15 21 4 35 11 32 17 -3 5 -15 6 -26 2 -14 -4 -18 -3 -13 5 4 7
19 11 33 10 45 -3 73 1 68 9 -7 12 91 13 121 1 25 -9 25 -10 7 -24 -10 -8 -27
-15 -37 -15 -10 0 -16 -4 -13 -9 7 -11 -40 -32 -58 -25 -14 5 -81 -58 -81 -76
0 -5 -3 -12 -7 -16 -13 -12 -9 -24 7 -24 18 0 18 -5 5 -29 -8 -16 -5 -20 21
-25 17 -3 35 -3 40 0 6 3 16 0 24 -6 8 -7 22 -10 30 -6 8 3 15 1 15 -4 0 -6
19 -10 41 -10 36 0 41 -2 36 -20 -3 -11 -1 -18 3 -15 5 3 10 0 12 -7 3 -8 29
-11 77 -11 86 2 126 21 118 59 -3 16 0 24 10 24 8 0 11 5 7 12 -4 6 -3 8 4 4
7 -4 10 3 9 20 -1 15 4 29 11 31 14 5 18 -53 4 -59 -5 -1 -12 -16 -16 -33 l-6
-30 25 28 c39 44 27 131 -25 180 -30 28 -145 72 -162 61 -4 -3 -5 2 -2 10 3 9
10 13 15 10 5 -3 31 -7 58 -9 48 -3 48 -3 59 33 8 24 8 38 2 40 -6 2 -10 9
-10 15 0 7 -11 13 -25 13 -15 1 -22 -2 -18 -9 3 -6 1 -7 -5 -3 -6 4 -9 13 -5
21 3 8 1 14 -3 14 -5 -1 -21 -4 -37 -6z m-70 -129 c-3 -3 -12 -4 -19 -1 -8 3
-5 6 6 6 11 1 17 -2 13 -5z m49 -192 c-11 -10 -14 3 -8 33 l7 30 3 -28 c2 -16
1 -31 -2 -35z m-144 14 c4 -22 3 -23 -19 -13 -26 11 -30 23 -10 30 22 9 25 7
29 -17z m98 -76 c0 -5 -4 -10 -10 -10 -5 0 -10 5 -10 10 0 6 5 10 10 10 6 0
10 -4 10 -10z"/>
<path d="M2268 2837 c-15 -20 -17 -20 -18 -4 0 15 -2 16 -13 5 -7 -7 -18 -27
-24 -45 -11 -29 -10 -32 18 -44 l30 -12 -31 -19 c-17 -10 -35 -16 -41 -13 -5
4 -9 0 -9 -8 0 -8 -9 -24 -20 -37 -28 -32 -28 -120 0 -165 27 -43 61 -65 129
-81 83 -20 127 -18 152 7 17 17 19 23 8 30 -8 5 -18 9 -22 9 -5 0 -5 5 -1 11
3 6 16 8 29 5 12 -3 25 -3 28 1 4 3 20 7 37 8 42 4 39 -27 -5 -54 -18 -11 -17
-12 9 -6 17 4 46 13 65 22 20 9 43 15 52 14 23 -3 34 118 12 135 -11 10 -11
13 -1 17 9 4 8 6 -3 6 -8 1 -26 13 -40 27 -21 23 -59 45 -81 48 -3 1 -10 4
-14 9 -4 4 -16 7 -26 7 -10 0 -18 4 -18 9 0 15 -51 23 -66 10 -12 -10 -13 -9
-8 5 6 14 66 24 99 16 6 -2 24 -2 42 -1 30 1 112 -25 123 -39 6 -9 50 -23 50
-17 0 3 -7 21 -15 41 -8 20 -15 39 -14 43 1 5 -9 14 -22 20 -13 7 -23 17 -21
23 1 5 -1 10 -5 11 -5 0 -17 2 -28 5 -11 2 -59 6 -107 8 -47 2 -91 7 -96 10
-6 4 -29 2 -51 -3 -24 -5 -39 -5 -35 0 12 20 -32 7 -48 -14z m100 -94 c-10 -2
-26 -2 -35 0 -10 3 -2 5 17 5 19 0 27 -2 18 -5z m-4 -201 c4 -6 -2 -8 -14 -5
-31 8 -44 40 -23 52 15 8 19 5 24 -14 4 -13 10 -28 13 -33z m153 4 c-6 -7 -20
-15 -30 -19 -16 -6 -16 -5 -1 18 9 13 22 21 29 18 12 -4 12 -8 2 -17z"/>
<path d="M2700 2829 c0 -5 5 -7 10 -4 6 3 10 8 10 11 0 2 -4 4 -10 4 -5 0 -10
-5 -10 -11z"/>
<path d="M2707 2789 c4 -13 8 -18 11 -10 2 7 -1 18 -6 23 -8 8 -9 4 -5 -13z"/>
<path d="M2557 2729 c7 -7 15 -10 18 -7 3 3 -2 9 -12 12 -14 6 -15 5 -6 -5z"/>
<path d="M2883 2682 c1 -18 47 -48 47 -31 0 5 -4 9 -9 9 -5 0 -13 9 -16 20 -8
25 -24 26 -22 2z"/>
<path d="M2670 2682 c0 -5 7 -13 16 -16 10 -4 14 -1 12 6 -5 15 -28 23 -28 10z"/>
<path d="M2850 2680 c0 -5 5 -10 10 -10 6 0 10 5 10 10 0 6 -4 10 -10 10 -5 0
-10 -4 -10 -10z"/>
<path d="M1196 2645 c-3 -8 -1 -15 4 -15 6 0 10 7 10 15 0 8 -2 15 -4 15 -2 0
-6 -7 -10 -15z"/>
<path d="M2871 2640 c-19 -11 5 -23 25 -12 14 8 14 10 2 15 -8 3 -21 2 -27 -3z"/>
<path d="M1212 2611 c-10 -6 -9 -11 4 -22 16 -12 17 -12 11 5 -6 14 -4 17 8
12 9 -3 13 -2 10 4 -7 12 -16 12 -33 1z"/>
<path d="M2880 2590 c13 -11 18 -20 13 -20 -6 0 -10 -12 -10 -27 0 -27 0 -27
14 7 10 24 11 36 4 38 -6 2 -9 8 -5 13 3 5 -5 9 -17 9 l-22 0 23 -20z"/>
<path d="M3026 2555 c-11 -8 -15 -15 -9 -15 6 0 16 7 23 15 16 19 11 19 -14 0z"/>
<path d="M1220 2550 c0 -8 5 -22 10 -30 9 -13 10 -13 10 0 0 8 -5 22 -10 30
-9 13 -10 13 -10 0z"/>
<path d="M3074 2534 c-18 -15 -18 -15 3 -5 30 15 38 -2 19 -36 -22 -42 -36
-92 -29 -108 7 -21 72 82 73 116 0 45 -31 61 -66 33z"/>
<path d="M1044 2483 c4 -32 11 -62 16 -67 6 -6 11 -19 11 -30 1 -12 6 10 10
48 8 59 7 72 -7 88 -29 32 -37 21 -30 -39z"/>
<path d="M2680 2520 c0 -5 5 -10 10 -10 6 0 10 5 10 10 0 6 -4 10 -10 10 -5 0
-10 -4 -10 -10z"/>
<path d="M2897 2510 c-6 -22 5 -25 34 -10 26 15 24 30 -5 30 -15 0 -26 -7 -29
-20z"/>
<path d="M1510 2443 c0 -15 2 -15 24 -7 23 9 20 23 -4 21 -11 -1 -20 -7 -20
-14z"/>
<path d="M2635 2430 c3 -5 8 -10 11 -10 2 0 4 5 4 10 0 6 -5 10 -11 10 -5 0
-7 -4 -4 -10z"/>
<path d="M2950 2430 c0 -5 7 -10 15 -10 8 0 15 5 15 10 0 6 -7 10 -15 10 -8 0
-15 -4 -15 -10z"/>
<path d="M1172 2403 c-47 -19 -61 -173 -15 -173 9 0 27 -12 40 -26 17 -19 28
-23 35 -16 13 13 -17 66 -32 57 -6 -3 -15 4 -21 17 -13 31 4 78 31 85 16 4 19
11 14 27 -10 31 -26 40 -52 29z"/>
<path d="M2886 2401 c-4 -5 -2 -12 4 -16 6 -4 8 -10 5 -15 -3 -4 2 -13 10 -20
24 -20 30 -76 11 -105 -17 -26 -22 -75 -7 -75 5 0 16 7 25 15 8 8 20 15 26 15
6 0 9 4 6 9 -4 5 2 7 12 4 26 -6 42 17 48 73 5 40 2 54 -15 76 -24 30 -77 53
-87 37 -4 -6 -10 -6 -19 1 -8 7 -15 7 -19 1z"/>
<path d="M2860 2329 c0 -5 5 -7 10 -4 6 3 10 8 10 11 0 2 -4 4 -10 4 -5 0 -10
-5 -10 -11z"/>
<path d="M1251 2294 c0 -11 3 -14 6 -6 3 7 2 16 -1 19 -3 4 -6 -2 -5 -13z"/>
<path d="M2290 2121 c0 -25 6 -27 13 -6 4 8 2 17 -3 20 -6 4 -10 -3 -10 -14z"/>
<path d="M2807 2120 c3 -11 9 -20 14 -20 4 0 7 9 6 20 -1 11 -7 20 -13 20 -7
0 -10 -8 -7 -20z"/>
<path d="M1310 2094 c0 -8 5 -12 10 -9 6 4 8 11 5 16 -9 14 -15 11 -15 -7z"/>
<path d="M1920 2087 c0 -6 14 -13 32 -14 18 -1 41 -12 52 -24 21 -21 21 -22 1
-14 -11 4 -29 9 -40 10 -11 2 -36 6 -55 10 -33 5 -34 5 -10 -7 14 -7 31 -18
38 -25 11 -11 9 -15 -12 -23 -14 -5 -26 -14 -26 -19 0 -6 -8 -7 -17 -4 -16 6
-17 5 -3 -13 13 -17 13 -18 0 -7 -21 16 -64 11 -84 -10 -9 -9 -23 -14 -30 -11
-7 3 -20 -1 -27 -9 -8 -7 -22 -18 -33 -24 -12 -7 -15 -13 -7 -17 6 -4 11 -2
11 3 0 6 5 11 11 11 6 0 1 -12 -10 -26 -11 -14 -17 -32 -14 -41 5 -12 3 -14
-7 -8 -9 5 -11 4 -6 -3 9 -15 12 -15 29 3 13 13 16 13 21 -1 4 -9 2 -12 -5 -8
-8 4 -9 -1 -4 -16 6 -18 4 -22 -7 -17 -11 4 -14 -1 -10 -18 2 -13 10 -26 18
-29 8 -3 11 0 8 8 -13 33 60 42 93 13 20 -18 26 -19 47 -8 13 8 29 10 35 7 6
-4 11 -3 11 2 0 14 47 21 59 9 5 -5 20 -10 33 -11 16 -1 22 -7 20 -19 -2 -11
4 -17 17 -17 11 0 28 -3 38 -7 10 -3 15 -3 11 2 -10 11 17 35 40 35 10 0 27
-9 36 -19 17 -19 17 -20 -4 -31 -11 -6 -28 -10 -38 -9 -9 1 -32 1 -51 0 -33
-1 -34 -2 -15 -16 17 -13 13 -14 -44 -10 -34 3 -74 8 -87 11 -16 4 -25 2 -25
-6 0 -14 25 -40 39 -40 6 0 11 -4 11 -10 0 -5 -5 -10 -11 -10 -5 0 -7 -5 -4
-10 4 -7 12 -7 25 0 25 13 37 13 22 -2 -15 -15 3 -49 23 -42 8 4 15 3 15 -1 0
-13 -33 -39 -53 -40 -11 -1 -25 -9 -32 -18 -16 -22 -25 -21 -25 1 -1 12 -5 9
-16 -10 -17 -33 -28 -37 -19 -8 4 11 2 20 -4 20 -6 0 -11 -5 -11 -10 0 -6 -13
-9 -30 -8 -19 1 -38 -6 -54 -21 l-24 -22 -14 29 c-17 33 -17 114 0 120 7 2 12
-1 12 -8 0 -6 -6 -8 -12 -4 -10 5 -10 4 -1 -6 7 -8 16 -10 20 -6 11 10 -13 42
-29 38 -10 -3 -11 -1 0 9 20 21 14 29 -13 19 -19 -7 -25 -6 -25 4 0 8 6 17 13
19 9 4 9 6 -1 6 -8 1 -19 -12 -25 -29 -6 -16 -15 -30 -19 -30 -4 0 -8 -5 -8
-11 0 -8 5 -7 15 1 20 16 32 5 16 -14 -7 -8 -11 -20 -10 -28 3 -27 -1 -38 -17
-38 -8 0 -13 4 -10 9 3 5 -2 12 -11 15 -15 6 -15 8 -3 16 9 6 10 10 3 10 -6 0
-15 -5 -18 -10 -4 -6 -11 -8 -16 -4 -5 3 -7 9 -4 14 3 5 -3 11 -14 15 -35 11
-76 95 -47 95 9 0 16 5 16 10 0 13 -17 13 -25 -1 -4 -6 -13 -8 -20 -5 -8 3
-16 0 -18 -7 -6 -15 -6 40 -1 71 3 13 9 20 14 17 7 -4 7 -13 0 -25 -12 -23 -2
-59 11 -38 5 7 6 21 3 30 -4 13 0 16 14 13 18 -3 19 0 11 33 -4 19 -15 39 -23
44 -11 6 -14 17 -10 35 5 18 3 24 -4 19 -8 -5 -10 -2 -6 8 7 19 -12 22 -20 4
-3 -7 -4 -4 -1 8 3 12 -1 27 -10 34 -20 17 -47 6 -38 -16 4 -12 3 -15 -5 -10
-7 4 -12 21 -12 37 0 18 -4 28 -10 24 -6 -3 -13 1 -16 9 -8 20 -34 -2 -27 -24
3 -8 7 -22 9 -30 5 -13 6 -13 14 0 8 13 10 13 10 -2 0 -9 -5 -18 -12 -20 -7
-3 -3 -13 11 -27 13 -13 30 -35 37 -50 13 -24 14 -25 14 -4 0 12 -4 25 -10 28
-5 3 -10 11 -10 16 0 19 56 -36 58 -56 3 -31 -8 -66 -18 -60 -12 7 -5 -49 11
-87 6 -15 15 -28 19 -28 5 0 14 -16 20 -35 6 -19 16 -35 21 -35 18 0 98 -89
105 -115 5 -20 9 -23 15 -13 6 9 9 7 9 -10 0 -12 5 -21 13 -20 7 2 11 -6 11
-20 -1 -16 3 -22 13 -18 8 3 12 2 9 -3 -9 -15 30 -42 49 -35 12 5 16 4 12 -3
-4 -6 4 -14 18 -17 14 -4 25 -11 25 -16 0 -6 9 -10 20 -10 11 0 19 -3 19 -7
-3 -20 2 -27 10 -14 8 12 14 10 35 -7 22 -16 37 -20 77 -16 36 3 48 1 44 -7
-5 -6 0 -10 11 -9 11 1 35 1 54 0 27 -1 31 -3 16 -9 -19 -7 -19 -8 2 -13 13
-4 20 -2 19 6 -1 6 4 10 12 8 7 -1 19 2 27 9 11 9 20 7 40 -6 14 -9 28 -14 31
-11 3 3 -2 8 -11 12 -9 3 -16 11 -16 16 0 6 7 7 15 4 9 -3 18 1 21 9 5 11 11
12 24 5 25 -13 30 -13 30 5 0 8 7 15 15 15 8 0 15 6 15 13 0 8 4 7 10 -3 6
-10 10 -11 10 -2 0 6 5 12 11 12 6 0 9 -6 6 -12 -2 -7 -12 -13 -23 -13 -13 0
-20 -8 -21 -25 -1 -14 0 -18 3 -10 2 9 18 21 34 29 29 12 42 41 19 41 -7 0 -6
8 4 23 8 12 20 21 26 20 6 -2 11 1 11 6 0 5 7 8 16 7 9 0 19 6 21 14 4 13 3
13 -7 0 -10 -13 -11 -12 -6 3 3 10 6 21 6 24 0 3 8 -1 17 -8 15 -12 16 -12 11
2 -5 12 5 22 32 38 21 11 40 28 44 36 7 18 -10 20 -18 3 -3 -7 -5 -4 -3 7 1
11 10 20 19 20 9 0 20 4 25 9 4 5 3 6 -4 2 -16 -9 -16 -1 -1 27 11 21 11 21
19 2 7 -17 8 -16 8 7 1 16 9 32 21 38 10 6 17 17 14 24 -3 8 3 22 14 32 46 46
66 138 36 168 -9 10 -13 24 -9 36 3 11 4 28 0 38 -5 17 -10 18 -40 8 -20 -6
-35 -17 -35 -26 0 -15 -35 -52 -42 -45 -2 2 -2 -18 -1 -43 2 -26 0 -41 -3 -34
-10 21 -34 14 -34 -10 0 -19 2 -20 10 -8 8 12 10 10 10 -8 0 -13 7 -31 16 -39
14 -15 15 -15 12 0 -2 9 1 16 6 16 11 1 13 -42 3 -80 -4 -14 -19 -32 -34 -40
-16 -7 -35 -21 -43 -29 -8 -9 -23 -14 -34 -12 -10 2 -23 -2 -28 -10 -6 -9 -7
-5 -3 11 5 16 4 21 -4 17 -6 -4 -11 -3 -11 3 0 6 9 15 20 21 15 8 18 15 10 34
-5 13 -6 33 -3 44 4 17 -1 23 -21 28 -15 3 -30 4 -33 0 -4 -3 3 -6 15 -6 12 0
22 -5 22 -11 0 -5 -5 -7 -12 -3 -8 5 -9 2 -5 -9 5 -12 1 -17 -13 -17 -10 0
-22 -4 -25 -10 -3 -5 1 -10 9 -10 8 0 18 -4 21 -10 3 -6 -1 -7 -10 -4 -11 5
-14 2 -9 -10 5 -12 0 -16 -16 -16 -19 0 -20 -2 -10 -15 19 -23 0 -18 -29 7
-14 13 -20 16 -13 8 20 -23 14 -35 -8 -15 -26 23 -26 10 0 -22 11 -15 18 -29
14 -32 -3 -3 -10 2 -15 12 -11 18 -39 24 -39 7 0 -11 -32 -1 -42 14 -5 7 -8 3
-8 -9 0 -17 -3 -15 -20 10 -11 17 -20 44 -19 60 0 26 2 27 9 10 7 -17 9 -17 9
-2 1 9 5 17 11 17 5 0 7 7 4 15 -4 8 -1 15 7 15 7 0 9 3 6 7 -4 3 -2 12 4 20
9 10 7 13 -10 13 -12 0 -19 5 -16 10 3 6 14 10 23 10 10 0 34 9 55 20 21 11
42 18 47 15 4 -3 11 1 13 7 4 10 8 10 15 -1 7 -10 11 -10 17 -1 4 7 10 8 14 4
3 -5 17 -18 30 -29 l24 -20 -12 22 c-14 27 -14 43 0 43 5 0 7 -4 4 -10 -3 -5
1 -10 9 -10 16 0 13 23 -8 49 -9 11 -6 13 14 8 14 -4 19 -4 12 -1 -6 3 -9 11
-6 16 4 6 2 8 -4 4 -6 -3 -14 -2 -17 4 -4 6 -1 9 7 8 8 -2 14 8 16 25 2 17 -1
27 -10 27 -10 0 -11 2 0 8 9 6 -1 13 -30 21 -23 7 -58 25 -77 39 -19 15 -32
21 -27 15 11 -20 0 -15 -28 10 -25 24 -27 55 -3 85 15 20 -1 27 -20 9 -21 -18
-94 -29 -114 -16 -10 6 -7 9 11 9 14 1 39 7 55 15 l30 13 -28 1 c-37 1 -99
-28 -90 -42 4 -6 0 -8 -10 -4 -9 3 -19 2 -22 -3 -12 -19 -49 -10 -80 19 -32
31 -95 49 -95 28z m-95 -137 c3 -5 1 -10 -4 -10 -6 0 -11 5 -11 10 0 6 2 10 4
10 3 0 8 -4 11 -10z m202 -49 c21 -6 52 -9 68 -6 17 2 45 6 63 9 17 2 32 0 32
-5 0 -5 3 -8 8 -7 4 1 21 -5 37 -12 42 -17 15 -24 -45 -11 -70 15 -105 14
-120 -4 -10 -12 -16 -13 -27 -4 -17 14 -160 6 -176 -10 -14 -14 -47 -14 -47 0
0 6 7 9 15 5 8 -3 15 -1 15 4 0 6 5 10 11 10 6 0 22 9 36 19 13 11 30 18 38
15 7 -3 16 0 20 6 4 6 13 9 20 6 8 -3 31 -10 52 -15z m-187 -21 c0 -5 -4 -10
-10 -10 -5 0 -10 5 -10 10 0 6 5 10 10 10 6 0 10 -4 10 -10z m-300 -110 c0 -5
-4 -10 -10 -10 -5 0 -10 5 -10 10 0 6 5 10 10 10 6 0 10 -4 10 -10z m1100 6
c0 -2 -7 -7 -16 -10 -8 -3 -12 -2 -9 4 6 10 25 14 25 6z m50 -34 c0 -5 -7 -17
-16 -28 -8 -10 -14 -14 -11 -9 2 6 7 18 10 28 7 17 17 23 17 9z m-75 -42 c3
-5 1 -10 -4 -10 -6 0 -11 5 -11 10 0 6 2 10 4 10 3 0 8 -4 11 -10z m-428 -26
c-3 -3 -12 -4 -19 -1 -8 3 -5 6 6 6 11 1 17 -2 13 -5z m-17 -84 c0 -5 -2 -10
-4 -10 -3 0 -8 5 -11 10 -3 6 -1 10 4 10 6 0 11 -4 11 -10z m275 -10 c3 -5 1
-10 -4 -10 -6 0 -11 5 -11 10 0 6 2 10 4 10 3 0 8 -4 11 -10z m-298 -22 c-3
-8 -6 -5 -6 6 -1 11 2 17 5 13 3 -3 4 -12 1 -19z m223 -49 c0 -11 -3 -11 -24
-3 -23 9 -20 23 4 17 11 -3 20 -9 20 -14z m-370 -19 c0 -5 -5 -10 -11 -10 -5
0 -7 5 -4 10 3 6 8 10 11 10 2 0 4 -4 4 -10z m-70 -41 c0 -6 -4 -7 -10 -4 -5
3 -10 11 -10 16 0 6 5 7 10 4 6 -3 10 -11 10 -16z"/>
<path d="M2716 1934 c-4 -9 -4 -19 -1 -22 3 -3 5 0 5 7 0 7 4 9 10 6 6 -3 7 1
4 9 -8 20 -10 20 -18 0z"/>
<path d="M2685 1890 c-3 -5 -2 -10 4 -10 6 0 7 -7 4 -17 -4 -11 -3 -14 5 -9
14 9 16 46 3 46 -6 0 -13 -4 -16 -10z"/>
<path d="M1524 1828 c-4 -7 -4 -10 1 -6 4 4 15 2 24 -5 14 -11 14 -10 2 6 -16
20 -18 21 -27 5z"/>
<path d="M2680 1819 c0 -5 9 -9 20 -9 11 0 20 2 20 4 0 2 -9 6 -20 9 -11 3
-20 1 -20 -4z"/>
<path d="M1447 1766 c-4 -10 0 -12 14 -9 22 6 26 23 5 23 -8 0 -16 -6 -19 -14z"/>
<path d="M1948 1753 c7 -3 16 -2 19 1 4 3 -2 6 -13 5 -11 0 -14 -3 -6 -6z"/>
<path d="M2510 1676 c0 -9 5 -16 10 -16 6 0 10 4 10 9 0 6 -4 13 -10 16 -5 3
-10 -1 -10 -9z"/>
<path d="M1561 1634 c0 -11 3 -14 6 -6 3 7 2 16 -1 19 -3 4 -6 -2 -5 -13z"/>
<path d="M1770 1479 c0 -5 5 -7 10 -4 6 3 10 8 10 11 0 2 -4 4 -10 4 -5 0 -10
-5 -10 -11z"/>
<path d="M2652 1440 c0 -14 2 -19 5 -12 2 6 2 18 0 25 -3 6 -5 1 -5 -13z"/>
<path d="M2570 1430 c0 -11 5 -20 10 -20 6 0 10 9 10 20 0 11 -4 20 -10 20 -5
0 -10 -9 -10 -20z"/>
<path d="M2720 1280 c-4 -348 -5 -364 -26 -410 -24 -51 -105 -155 -167 -215
-23 -22 -53 -55 -67 -73 -20 -26 -30 -31 -49 -27 -21 5 -23 4 -13 -8 10 -12 9
-16 -8 -20 -23 -6 -28 -37 -6 -37 8 0 21 -9 29 -20 14 -20 14 -19 25 5 14 29
24 31 43 8 8 -9 9 -14 3 -10 -7 4 -14 -3 -17 -19 l-4 -25 23 22 c13 12 24 20
24 16 0 -3 -34 -33 -75 -67 -51 -41 -75 -56 -75 -45 0 9 -5 13 -10 10 -6 -4
-18 -1 -27 7 -14 11 -16 11 -8 -1 6 -11 4 -13 -9 -8 -10 4 -20 7 -22 7 -3 0
-2 4 1 10 3 5 2 10 -4 10 -5 0 -11 -6 -13 -12 -3 -9 -16 -5 -41 12 -20 14 -37
29 -37 34 0 4 -7 6 -15 2 -10 -3 -15 1 -16 12 0 10 -3 12 -6 4 -3 -9 -12 -7
-33 8 -15 11 -35 17 -44 14 -9 -3 -16 -2 -16 2 0 5 -40 9 -89 10 -106 1 -139
15 -273 117 -107 81 -140 115 -173 178 -41 79 -55 165 -54 331 0 82 -1 151 -4
154 -2 2 -15 -11 -28 -31 -13 -19 -28 -33 -34 -32 -8 3 -775 -378 -865 -430
-150 -87 -357 -214 -473 -291 l-67 -45 0 -213 0 -214 2065 0 2065 0 0 329 0
330 -57 26 c-32 15 -146 65 -253 112 -205 89 -326 150 -512 259 -62 37 -128
75 -147 86 -19 10 -100 37 -180 59 -130 35 -149 43 -171 72 -14 17 -40 47 -57
67 l-32 35 -1 -95z m-207 -775 c-3 -9 -8 -14 -10 -11 -3 3 -2 9 2 15 9 16 15
13 8 -4z m-163 -164 c0 -11 -51 -33 -58 -26 -4 3 4 8 17 12 13 3 20 11 17 19
-3 8 0 11 10 7 7 -3 14 -8 14 -12z"/>
<path d="M2655 1320 c-4 -6 -3 -16 3 -22 13 -13 23 4 13 21 -7 10 -10 10 -16
1z"/>
<path d="M2390 1306 c0 -9 7 -16 16 -16 17 0 14 22 -4 28 -7 2 -12 -3 -12 -12z"/>
<path d="M2395 1219 c-11 -17 0 -20 21 -4 17 13 17 14 2 15 -9 0 -20 -5 -23
-11z"/>
<path d="M2370 1150 c0 -5 5 -10 10 -10 6 0 10 5 10 10 0 6 -4 10 -10 10 -5 0
-10 -4 -10 -10z"/>
<path d="M2350 690 c0 -5 5 -10 10 -10 6 0 10 5 10 10 0 6 -4 10 -10 10 -5 0
-10 -4 -10 -10z"/>
<path d="M2425 420 c-3 -5 -2 -10 4 -10 5 0 13 5 16 10 3 6 2 10 -4 10 -5 0
-13 -4 -16 -10z"/>
</g>
</svg>
